#!OML:ASF F:\VICON\USERDATA\INSTALL\rory3\rory3.ASF
:FULLY-SPECIFIED
:DEGREES
551
root -0.485764 17.021 25.564 8.67736 0.978677 -5.11849
lowerback -8.59993 0.471892 4.37214
upperback -4.88769 0.304153 1.47101
thorax -0.233677 0.0870519 -0.910348
lowerneck -13.8193 -3.05878 -7.62595
upperneck 27.5914 -3.97945 5.44503
head 11.5334 -1.93322 2.76188
rclavicle -2.34038e-014 1.2424e-016
rhumerus -41.0465 4.08745 -87.9713
rradius 32.7703
rwrist 1.14788
rhand -23.6907 -50.2204
rfingers 7.12502
rthumb 2.77611 -80.182
lclavicle -2.34038e-014 1.2424e-016
lhumerus -42.4258 -4.2762 86.4532
lradius 27.6334
lwrist 6.57863
lhand -33.4338 -29.1499
lfingers 7.12502
lthumb -6.63298 0.726213
rfemur -26.1296 8.60814 29.8699
rtibia 33.8687
rfoot -13.4236 -12.5968
rtoes 8.81268
lfemur -25.0065 2.98568 -13.9133
ltibia 69.9093
lfoot -9.36262 2.03352
ltoes -23.0579
552
root -0.484464 17.0152 25.6608 8.68219 0.904469 -4.70942
lowerback -8.30762 0.457938 4.05093
upperback -4.94905 0.327782 1.3332
thorax -0.455952 0.0988774 -0.872434
lowerneck -13.7189 -3.01402 -7.56553
upperneck 27.6184 -3.94445 5.46163
head 11.5192 -1.91065 2.76396
rclavicle 6.84875e-015 -2.7159e-014
rhumerus -40.6653 4.43789 -88.0714
rradius 32.8214
rwrist 0.811341
rhand -23.6912 -50.5347
rfingers 7.12502
rthumb 2.77557 -80.4964
lclavicle 6.84875e-015 -2.7159e-014
lhumerus -42.782 -4.07424 86.1897
lradius 27.4966
lwrist 6.75037
lhand -33.4153 -28.355
lfingers 7.12502
lthumb -6.61516 1.5217
rfemur -25.8596 8.38569 29.5104
rtibia 34.0675
rfoot -13.7159 -12.485
rtoes 9.34001
lfemur -26.195 2.54598 -14.6237
ltibia 70.0098
lfoot -9.96402 3.31269
ltoes -21.6999
553
root -0.476713 17.0071 25.7444 8.74035 1.08854 -4.91292
lowerback -7.89732 0.47234 4.52115
upperback -4.91703 0.338621 1.34251
thorax -0.648517 0.0915642 -1.12688
lowerneck -14.2843 -3.03822 -7.56255
upperneck 27.7485 -3.92417 5.40607
head 11.6821 -1.89988 2.74439
rclavicle 1.55301e-015 -8.15017e-015
rhumerus -40.0609 4.62498 -87.9955
rradius 32.8766
rwrist 0.937666
rhand -23.3255 -51.2525
rfingers 7.12502
rthumb 3.12875 -81.2093
lclavicle 1.55301e-015 -8.15017e-015
lhumerus -42.8725 -3.90191 85.9714
lradius 27.6548
lwrist 6.87932
lhand -33.2905 -27.3251
lfingers 7.12502
lthumb -6.49467 2.55535
rfemur -25.68 7.92419 29.824
rtibia 34.2312
rfoot -13.613 -12.2992
rtoes 9.44923
lfemur -27.607 2.06276 -14.6043
ltibia 70.0636
lfoot -10.5414 4.34187
ltoes -19.8786
554
root -0.492442 16.9916 25.8447 8.73622 0.749519 -5.37069
lowerback -7.67717 0.673711 4.85337
upperback -4.84269 0.595636 1.45534
thorax -0.679339 0.214905 -1.17906
lowerneck -14.4167 -3.13973 -7.58146
upperneck 27.6682 -4.06108 5.43767
head 11.6902 -1.9569 2.73708
rclavicle -1.03679e-014 1.4064e-014
rhumerus -39.7161 4.56621 -87.8889
rradius 32.9048
rwrist 1.99665
rhand -23.2753 -51.3392
rfingers 7.12502
rthumb 3.17721 -81.2952
lclavicle -1.03679e-014 1.4064e-014
lhumerus -43.0297 -3.87192 85.7612
lradius 27.8352
lwrist 7.17301
lhand -33.2609 -26.3246
lfingers 7.12502
lthumb -6.46608 3.55667
rfemur -25.3419 8.51255 30.4222
rtibia 34.305
rfoot -13.7863 -12.6799
rtoes 8.76815
lfemur -28.8458 2.27921 -14.1595
ltibia 70.0239
lfoot -11.1933 4.87401
ltoes -16.8027
555
root -0.501682 16.9819 25.9629 8.63065 0.429079 -5.47556
lowerback -7.67304 0.829086 4.90696
upperback -4.75194 0.794931 1.45994
thorax -0.57592 0.316827 -1.18972
lowerneck -13.9459 -3.1925 -7.62367
upperneck 27.3256 -4.16521 5.4967
head 11.4728 -2.00613 2.74838
rclavicle -5.17151e-015 4.17448e-015
rhumerus -39.4433 4.5596 -87.8126
rradius 33.5955
rwrist 1.51525
rhand -21.9054 -53.5126
rfingers 7.12502
rthumb 4.50008 -83.4448
lclavicle -5.17151e-015 4.17448e-015
lhumerus -43.2782 -3.8227 85.5501
lradius 27.8574
lwrist 7.55411
lhand -33.633 -25.9028
lfingers 7.12502
lthumb -6.82532 3.96721
rfemur -24.7248 8.67717 30.6494
rtibia 34.2744
rfoot -14.3905 -12.7691
rtoes 8.39093
lfemur -29.7077 2.28325 -14.1709
ltibia 69.7256
lfoot -11.9117 5.42488
ltoes -13.5364
556
root -0.503169 16.9764 26.0802 8.51895 0.247046 -5.52894
lowerback -7.6165 0.924248 5.02972
upperback -4.64657 0.912934 1.45422
thorax -0.48986 0.376531 -1.25576
lowerneck -13.9259 -3.10189 -7.64772
upperneck 27.2661 -4.05495 5.59598
head 11.4393 -1.94611 2.80461
rclavicle -1.7024e-014 -1.30701e-014
rhumerus -39.0299 4.81212 -87.8215
rradius 33.6912
rwrist 1.43629
rhand -22.3212 -53.4627
rfingers 7.12502
rthumb 4.09865 -83.4031
lclavicle -1.7024e-014 -1.30701e-014
lhumerus -43.5729 -3.69689 85.3773
lradius 27.9832
lwrist 7.70212
lhand -33.5774 -26.9502
lfingers 7.12502
lthumb -6.77162 2.92149
rfemur -24.0602 8.54953 30.8139
rtibia 34.1986
rfoot -14.8195 -12.722
rtoes 8.12267
lfemur -30.5421 2.00837 -14.2567
ltibia 69.2318
lfoot -12.6169 5.86771
ltoes -10.5545
557
root -0.497258 16.9713 26.1912 8.48722 0.162758 -5.59223
lowerback -7.47804 1.00678 5.2765
upperback -4.59014 1.01453 1.43207
thorax -0.498911 0.422838 -1.41057
lowerneck -13.5557 -3.12106 -7.81191
upperneck 26.8411 -4.10353 5.78119
head 11.2143 -1.96571 2.8893
rclavicle -1.166e-014 -2.48481e-016
rhumerus -38.617 5.00995 -87.7936
rradius 33.8943
rwrist 1.40452
rhand -23.1723 -52.0757
rfingers 7.12502
rthumb 3.27669 -82.0302
lclavicle -1.166e-014 -2.48481e-016
lhumerus -43.9249 -3.71022 85.3209
lradius 28.2504
lwrist 7.86901
lhand -33.0556 -28.0824
lfingers 7.12502
lthumb -6.26791 1.80491
rfemur -23.5175 8.19706 30.9542
rtibia 34.1465
rfoot -15.2068 -12.5742
rtoes 7.31819
lfemur -31.4818 1.56973 -14.3559
ltibia 68.5985
lfoot -13.3444 6.28512
ltoes -8.55763
558
root -0.497511 16.9646 26.3041 8.49576 0.0368289 -5.70239
lowerback -7.42908 1.1397 5.5055
upperback -4.52242 1.17772 1.40848
thorax -0.442037 0.502084 -1.55121
lowerneck -13.295 -3.16261 -7.98859
upperneck 26.4745 -4.17265 5.96014
head 11.0374 -1.9954 2.971
rclavicle -3.00662e-015 -6.4605e-016
rhumerus -38.2408 4.95075 -87.656
rradius 34.4624
rwrist 1.41397
rhand -24.836 -48.833
rfingers 7.12502
rthumb 1.66996 -78.8062
lclavicle -3.00662e-015 -6.4605e-016
lhumerus -44.07 -3.827 85.2775
lradius 28.3564
lwrist 8.18226
lhand -33.0594 -27.8682
lfingers 7.12502
lthumb -6.27159 2.01894
rfemur -23.0522 8.10113 31.128
rtibia 34.1242
rfoot -15.1329 -12.392
rtoes 7.03538
lfemur -32.3949 1.3147 -14.3724
ltibia 67.8702
lfoot -13.9497 6.75261
ltoes -8.7244
559
root -0.502798 16.9528 26.416 8.4715 -0.140512 -5.86832
lowerback -7.37372 1.2777 5.71101
upperback -4.40868 1.34745 1.39783
thorax -0.339685 0.587303 -1.66442
lowerneck -13.609 -3.27556 -7.87719
upperneck 26.5808 -4.30158 5.81591
head 11.1456 -2.05525 2.88023
rclavicle -1.00386e-014 -5.76476e-015
rhumerus -37.8265 5.08007 -87.6691
rradius 34.9914
rwrist 1.08043
rhand -24.8179 -49.7067
rfingers 7.12502
rthumb 1.68743 -79.6798
lclavicle -1.00386e-014 -5.76476e-015
lhumerus -44.1081 -3.81373 85.1376
lradius 28.4155
lwrist 8.28998
lhand -33.4919 -27.3123
lfingers 7.12502
lthumb -6.68905 2.56207
rfemur -22.5774 8.18143 31.38
rtibia 34.1288
rfoot -16.1528 -12.3727
rtoes 8.04388
lfemur -33.2171 1.19519 -14.2885
ltibia 67.0589
lfoot -14.2125 7.14666
ltoes -9.74104
560
root -0.50401 16.9415 26.5271 8.45262 -0.359093 -5.8529
lowerback -7.22024 1.36596 5.70978
upperback -4.3969 1.47574 1.36591
thorax -0.402404 0.649721 -1.69033
lowerneck -13.1753 -3.1245 -7.93266
upperneck 26.2964 -4.17435 6.10995
head 10.9479 -1.97326 3.01392
rclavicle -7.61594e-015 1.26228e-014
rhumerus -37.5392 5.49928 -87.7981
rradius 35.3528
rwrist 0.303188
rhand -25.0118 -50.2416
rfingers 7.12502
rthumb 1.50015 -80.2161
lclavicle -7.61594e-015 1.26228e-014
lhumerus -44.4184 -3.65069 84.9587
lradius 28.666
lwrist 8.06112
lhand -33.5242 -27.1141
lfingers 7.12502
lthumb -6.7203 2.75925
rfemur -22.1073 8.12811 31.4339
rtibia 34.1574
rfoot -16.6778 -12.2682
rtoes 7.95868
lfemur -34.0001 1.00157 -14.4094
ltibia 66.1302
lfoot -14.4621 7.35825
ltoes -9.32278
561
root -0.504056 16.9308 26.636 8.46412 -0.514149 -5.85888
lowerback -7.08609 1.44403 5.74115
upperback -4.41834 1.5887 1.33909
thorax -0.489502 0.702774 -1.73066
lowerneck -14.3278 -3.53553 -7.53685
upperneck 27.2688 -4.6564 5.51982
head 11.5665 -2.2088 2.66651
rclavicle 2.20216e-015 7.95139e-016
rhumerus -37.3063 5.80526 -87.8965
rradius 35.3208
rwrist 0.662258
rhand -26.1585 -48.5231
rfingers 7.12502
rthumb 0.392679 -78.5025
lclavicle 2.20216e-015 7.95139e-016
lhumerus -44.7096 -3.72276 84.8917
lradius 28.7807
lwrist 8.00183
lhand -33.495 -27.5852
lfingers 7.12502
lthumb -6.69212 2.28902
rfemur -21.6863 8.09302 31.4994
rtibia 34.2102
rfoot -17.0707 -12.3886
rtoes 7.05668
lfemur -34.8157 0.768136 -14.4865
ltibia 65.1417
lfoot -14.7395 7.5398
ltoes -8.99752
562
root -0.508026 16.9141 26.7312 8.50161 -0.533041 -6.12454
lowerback -6.76753 1.49139 6.02295
upperback -4.50584 1.6647 1.38378
thorax -0.74703 0.727722 -1.84483
lowerneck -13.4405 -3.3963 -7.66447
upperneck 26.5167 -4.54162 5.82018
head 11.1016 -2.14491 2.81193
rclavicle -2.42579e-015 1.2424e-014
rhumerus -37.0804 5.79171 -87.8728
rradius 35.8823
rwrist 0.0558127
rhand -25.6757 -49.4653
rfingers 7.12502
rthumb 0.859011 -79.4434
lclavicle -2.42579e-015 1.2424e-014
lhumerus -45.0496 -3.99896 84.9407
lradius 28.9151
lwrist 8.29351
lhand -33.6818 -27.7944
lfingers 7.12502
lthumb -6.8724 2.07409
rfemur -21.3384 8.19586 31.8554
rtibia 34.1905
rfoot -17.4715 -12.666
rtoes 6.69663
lfemur -35.7442 0.556903 -14.2061
ltibia 64.0802
lfoot -14.8002 7.68371
ltoes -10.3191
563
root -0.520634 16.89 26.8008 8.60736 -0.607747 -6.57798
lowerback -6.09607 1.52947 6.33131
upperback -4.68594 1.76427 1.53836
thorax -1.29769 0.754758 -1.86941
lowerneck -13.368 -3.38838 -7.61398
upperneck 26.4668 -4.50909 5.69027
head 11.0614 -2.1414 2.7597
rclavicle -5.17461e-015 -2.36057e-014
rhumerus -36.8478 6.02574 -87.906
rradius 36.2484
rwrist -0.390667
rhand -25.7453 -49.0231
rfingers 7.12502
rthumb 0.791718 -79.0014
lclavicle -5.17461e-015 -2.36057e-014
lhumerus -45.4253 -4.09141 84.9828
lradius 29.249
lwrist 8.57277
lhand -33.6154 -27.7897
lfingers 7.12502
lthumb -6.80834 2.08084
rfemur -21.1552 8.71603 32.437
rtibia 34.0903
rfoot -17.7107 -13.1538
rtoes 6.26607
lfemur -36.9203 0.512789 -13.6252
ltibia 63.0023
lfoot -14.7849 7.5821
ltoes -12.0497
564
root -0.517355 16.8951 26.9433 8.6884 -0.801656 -6.5179
lowerback -6.65579 1.64458 6.3766
upperback -4.46832 1.85663 1.48521
thorax -0.750664 0.818226 -1.92677
lowerneck -13.1937 -3.31944 -7.83316
upperneck 26.0971 -4.45234 6.05254
head 10.8969 -2.09561 2.9335
rclavicle -2.0217e-014 1.93815e-015
rhumerus -36.4073 6.41469 -87.9601
rradius 36.5502
rwrist -0.539865
rhand -26.093 -48.7853
rfingers 7.12502
rthumb 0.455917 -78.7646
lclavicle -2.0217e-014 1.93815e-015
lhumerus -45.4589 -4.15835 85.0109
lradius 29.468
lwrist 8.90146
lhand -33.5418 -28.0074
lfingers 7.12502
lthumb -6.73729 1.86544
rfemur -20.4901 8.46474 32.4024
rtibia 33.8539
rfoot -18.2261 -13.0378
rtoes 4.6305
lfemur -37.38 0.284302 -13.7591
ltibia 61.669
lfoot -15.1697 7.7962
ltoes -12.5073
